<svg width="350" height="350" viewBox="0 0 350 350" fill="none" xmlns="http://www.w3.org/2000/svg">
<path d="M68.0309 248V102.545H158.23V121.438H89.9769V165.756H151.767V184.577H89.9769V248H68.0309ZM264.551 140.756C263.793 134.032 260.668 128.824 255.176 125.131C249.683 121.39 242.77 119.52 234.437 119.52C228.471 119.52 223.31 120.467 218.954 122.361C214.598 124.207 211.213 126.764 208.798 130.031C206.431 133.251 205.247 136.92 205.247 141.04C205.247 144.496 206.052 147.479 207.662 149.989C209.319 152.498 211.473 154.605 214.125 156.31C216.824 157.967 219.712 159.364 222.789 160.5C225.867 161.589 228.826 162.489 231.667 163.199L245.872 166.892C250.512 168.028 255.27 169.567 260.147 171.509C265.024 173.45 269.546 176.007 273.713 179.179C277.879 182.351 281.241 186.281 283.798 190.969C286.402 195.656 287.704 201.267 287.704 207.801C287.704 216.04 285.574 223.355 281.312 229.747C277.098 236.139 270.967 241.182 262.917 244.875C254.915 248.568 245.233 250.415 233.869 250.415C222.979 250.415 213.556 248.687 205.602 245.23C197.647 241.774 191.421 236.873 186.923 230.528C182.425 224.136 179.939 216.561 179.466 207.801H201.483C201.909 213.057 203.613 217.437 206.596 220.94C209.627 224.397 213.485 226.977 218.173 228.682C222.908 230.339 228.092 231.168 233.727 231.168C239.93 231.168 245.446 230.197 250.275 228.256C255.152 226.267 258.987 223.521 261.781 220.017C264.574 216.466 265.971 212.323 265.971 207.588C265.971 203.279 264.74 199.752 262.278 197.006C259.863 194.259 256.573 191.987 252.406 190.188C248.287 188.388 243.623 186.802 238.414 185.429L221.227 180.741C209.579 177.569 200.346 172.905 193.528 166.75C186.757 160.595 183.372 152.451 183.372 142.318C183.372 133.937 185.645 126.622 190.19 120.372C194.735 114.122 200.891 109.269 208.656 105.812C216.421 102.309 225.181 100.557 234.934 100.557C244.783 100.557 253.471 102.285 261 105.741C268.575 109.198 274.541 113.956 278.897 120.017C283.253 126.03 285.526 132.943 285.716 140.756H264.551Z" fill="#5E94FF"/>
</svg>
